Patient4_TMGait_0pt6_02_right_06_EMG.mot
version=1
nRows=37
nColumns=33
inDegrees=no
endheader
time	1LAddLong	2LGlutMax	3LGlutMed	4LIliopsoas	5LSemiMemb	6LBicFemLong	7LRecFem	8LVastMed	9LVastLat	10LGasMed	11LTibAnt	12lTibPost	13LPeroneusLong	14LSol	15LExtDigLong	16LFlexDigLong	17RAddLong	18RGlutMax	19RGlutMed	20RIliopsoas	21RSemiMemb	22RBicFemLong	23RRecFem	24RVastMed	25RVastLat	26RGasMed	27RTibAnt	28RTibPost	29RPeroneusLong	30RSol	31RExtDigLong	32RFlexDigLong
7.075	-0.007477	-1.2419	-0.096893	0.037079	0.010681	-0.016174	0.13062	0.009613	-0.033112	0.053711	0.052643	0.019379	-0.078125	0.10834	0.10056	-0.011292	0.002289	-1.2714	-1.032	-0.090027	-0.21698	0.25497	0.064087	0.099182	-0.029449	-0.00824	0.086517	-0.013885	-0.84152	0.10178	-0.008392	-0.015411
7.076	-0.010986	-1.0794	-0.10727	0.026093	0.006104	-0.01297	0.17654	0.009155	-0.031433	0.053711	0.003815	0.016479	-0.091858	0.11063	-0.025024	-0.001526	0.044098	-1.2733	-1.0545	-0.052032	-0.21439	0.58121	0.10239	0.014038	-0.045776	-0.013275	0.19638	-0.015106	-0.82932	0.14099	0.00473	-0.015411
7.077	-0.009308	-0.9671	-0.074463	-0.011749	0.017395	-0.011749	0.20935	0.006256	0.002747	0.053558	0.056	0.011902	-0.092926	0.1265	-0.059967	0.000305	0.075836	-1.3235	-0.87616	0.028229	-0.33569	0.22934	0.12634	-0.17395	-0.065613	-0.006256	0.06134	-0.014343	2.2633	0.071259	0.001678	-0.018463
7.078	0.002594	-0.88715	-0.055084	-0.026703	0.01358	-0.002594	0.25452	0.009003	0.021973	0.043182	0.06958	0.016785	-0.075684	0.09552	-0.11871	-0.015717	0.073547	-1.4177	-0.64346	-0.017242	-0.2832	0.26047	0.072327	-0.1236	-0.036926	0.006104	-0.19226	-0.006409	2.7902	-0.10681	0.008698	-0.010529
7.079	-0.006409	-0.76324	-0.086517	-0.014954	0.004883	0.011597	0.30395	0.005188	0.031281	0.020294	0.072632	0.005035	-0.033417	0.075378	-0.15396	-0.008392	0.057831	-1.4391	-0.66193	0.11154	-0.063019	0.57938	-0.009613	-0.071411	0.005493	0.010834	-0.23773	-0.005798	-0.12711	-0.062408	-0.003662	0.000763
7.08	-0.007477	-0.64896	-0.078735	-0.02243	0.012512	-0.010681	0.36896	0.01236	0.032349	0.033569	0.001984	0.013123	-0.037537	0.11231	-0.049591	-0.007629	-0.017395	-1.4197	-0.81848	0.10849	0.007629	0.96329	0.029144	-0.086823	0.006256	0.011597	-0.30121	-0.001831	-0.83405	0.05249	-0.00412	-0.001068
7.081	-0.013275	-0.50003	-0.076904	-0.013123	0.014648	0.00061	0.40909	0.011292	0.027924	0.06424	0.052185	0.015106	-0.076599	0.11124	-0.01297	-0.011749	-0.080872	-1.3721	-1.1372	0.061951	0.095367	0.72693	-0.019684	0.091553	0.008392	-0.00885	-0.010529	-0.005341	-1.6438	0.24963	0.001831	-0.010681
7.082	-0.012665	-0.3949	-0.085907	-0.00412	0.012512	0.011139	0.43915	0.009003	0.030365	0.078278	0.18707	0.001068	-0.1236	0.051727	0.075989	-0.001678	-0.11185	-1.3007	-0.9993	0.1207	0.15747	0.42618	-0.14923	0.24185	0.068054	-0.014038	0.099335	-0.000458	-1.433	0.27191	0.001221	-0.011139
7.083	-0.012817	-0.33005	-0.093689	0.010986	0.016327	-0.008087	0.39475	0.009003	0.041046	0.086212	0.23972	0.001221	-0.15991	-0.010223	0.033569	-0.01358	-0.048523	-1.1798	-0.58807	0.12787	0.14343	-0.06012	-0.12405	0.15701	0.12604	-0.005188	0.054169	-0.002441	-0.33356	0.3508	-0.003204	-0.006561
7.084	-0.019836	-0.25253	-0.10483	0.018768	0.015564	-0.002136	0.44617	0.004272	0.036011	0.058899	-0.023193	0.002594	-0.13046	-0.002441	-0.061493	-0.001068	-0.007477	-1.0338	-0.47043	0.11047	0.18478	-0.28244	0.021667	0.14297	0.053101	-0.012665	0.014343	-0.002899	-0.98114	0.17532	-0.000916	-0.002441
7.085	-0.021057	-0.15717	-0.11704	0.026398	0.023804	0.002594	0.54016	0.001831	0.032959	0.043793	-0.16586	0.005188	-0.048676	0.057373	0.17578	0.018463	0.001526	-1.0036	-0.65826	0.067444	-0.044556	-0.21912	0.14053	0.15213	0.03418	-0.017548	0.047607	0.004578	-0.65475	0.069885	0.005798	-0.003357
7.086	-0.013733	-0.074158	-0.15625	0.041656	0.025787	-0.010986	0.58105	0.002441	0.048981	-0.015869	-0.28656	0.00351	0.10757	0.085754	-0.069275	0.011292	-0.009003	-0.84061	-0.83847	0.019379	-0.069885	-0.1445	0.14206	0.11414	0.030823	-0.000305	0.11353	0.000763	-0.70099	-0.040741	-0.003052	-0.000458
7.087	-0.009918	0.048523	-0.13687	-0.006256	0.02182	-0.016632	0.49393	-0.002594	0.049438	-0.005646	-0.10834	-0.005493	0.074921	0.10773	-0.075989	-0.00061	-0.027924	-0.70999	-0.9317	-0.065765	-0.13275	-0.22476	0.17731	0.092773	-0.02594	0.000916	-0.025024	-0.003357	0.6192	-0.098877	-0.00351	0.005341
7.088	0.003204	0.13153	-0.11841	-0.022583	0.018768	-0.009003	0.35919	0.002441	0.036163	0.046844	-0.07019	0.004883	-0.008087	0.14465	0.097351	-0.003204	-0.021667	-0.56274	-1.0127	-0.15869	-0.097809	-0.5368	0.11139	0.052643	-0.009155	-0.0177	0.053558	0.001068	-0.16724	-0.02655	-0.001068	0.002136
7.089	0.000763	0.21942	-0.13107	-0.008087	0.008545	0.006256	0.26566	-0.000305	0.039825	0.068817	0.017853	0.007629	-0.095215	0.168	0.058136	-0.000458	0.003357	-0.4837	-0.96237	-0.21011	-0.023193	-0.77393	0.19012	-0.053864	0.007324	-0.014954	-0.009003	0.003052	0.52841	-0.056305	0.004883	0.009155
7.09	0.004883	0.31464	-0.12604	0.018921	0.013733	0.006561	0.17944	0.004272	0.045929	0.059509	-0.042114	0.002594	-0.090179	0.12772	-0.11322	0.00061	0.013275	-0.55374	-0.94864	-0.19302	-0.058136	-0.48126	0.18478	-0.086365	-0.001831	-0.007629	0.012817	0.014191	0.85373	-0.034485	0.002289	0.013428
7.091	0.007935	0.42175	-0.11948	0.033264	0.020752	-0.021515	0.16281	0.007782	0.045319	0.070496	-0.067902	-0.000153	-0.059967	0.1091	0.30914	-0.003967	0.016327	-0.58868	-1.337	-0.006256	-0.1445	-0.34866	0.15366	-0.088806	0.025177	0.00061	0.053253	0.018311	1.2448	-0.074921	0.001373	0.004578
7.092	0.007782	0.52078	-0.17441	0.032196	0.016174	-0.027466	0.097809	0.001068	0.040131	0.061188	-0.12741	0.001526	-0.070953	0.056915	-0.010223	-0.018005	0.002594	-0.38223	-1.3786	0.15732	-0.19623	-0.47302	0.071869	0.16769	0.037231	-0.00061	0.072632	0.007477	1.2454	-0.057068	0.001831	0.010986
7.093	0.006561	0.60013	-0.20493	0.018616	0.015717	-0.032501	0.16937	-0.002594	0.050354	0.041046	-0.1091	0.008087	-0.030823	0.026398	0.31723	-0.010681	0.002747	-0.20309	-1.4035	0.11902	-0.20309	-0.51331	0.11917	0.1207	-0.041199	0.00885	-0.045624	0.000916	-0.24857	-0.12787	0.002136	0.012207
7.094	-0.002899	0.7103	-0.23285	0.010071	0.01709	-0.026398	0.21103	-0.002594	0.053711	0.032349	-0.093079	0.00473	-0.001984	0.033722	0.12131	-0.014343	0.007935	-0.022736	-0.85678	-0.007477	-0.19379	-0.74997	0.1738	0.037994	-0.16571	0.020599	-0.005951	0.003967	-1.8324	-0.17441	0.002899	0.011597
7.095	0.005341	0.73196	-0.19501	-0.007324	0.020905	-0.028992	0.29999	-0.004425	0.06958	0.050812	0.00473	0.009155	-0.018005	0.091553	-0.32684	-0.014191	0.018921	0.002136	-0.1648	-0.046082	-0.011292	-0.76996	0.28366	0.065765	-0.24475	0.008392	-0.095825	0.006409	-1.2628	-0.033569	-0.001984	0.011139
7.096	0.005646	0.77286	-0.2124	-0.003357	0.023499	-0.028076	0.45059	-0.005951	0.07019	0.05188	0.064392	0.011292	-0.046387	0.12054	-0.4126	-0.026703	0.024414	0.19073	-0.41214	-0.00061	0.065765	-0.58411	0.51849	0.005188	-0.22705	-0.028381	-0.06012	-0.000916	0.10803	0.30029	0.00061	0.003052
7.097	0.010376	0.80063	-0.20493	0.003052	0.013428	-0.023193	0.52872	-0.015106	0.056458	0.016785	0.072174	0.008087	0.019379	0.11505	0.37872	-0.007172	0.002289	0.53482	-0.71487	-0.053864	0.075989	-0.4631	0.4129	-0.052643	-0.18478	-0.041656	0.006256	-0.002594	0.56702	0.1506	-0.000305	-0.000916
7.098	0.006866	0.80475	-0.22308	0.004883	0.026855	-0.033112	0.58365	-0.007477	0.039063	0.039368	0.17349	0.010071	0.019684	0.087433	0.42465	0.004578	-0.009918	0.83771	-0.76248	-0.056915	0.059967	-0.39093	-0.008087	-0.1503	0.014343	-0.040131	-0.16693	-0.002136	1.2463	0.008698	-0.001678	0.000763
7.099	0.014496	0.82443	-0.23331	0.005188	0.023804	-0.013275	0.62561	-0.006256	0.036774	0.070038	0.079498	0.009003	-0.012207	0.00824	-0.03952	-0.009155	-0.020142	1.035	-0.28503	-0.048218	0.02243	-0.15289	-0.23773	0.038757	0.14404	-0.045929	-0.11246	-0.008087	0.28366	0.075226	-0.000916	0.003815
7.1	0.005188	0.85251	-0.23544	0.004578	0.024109	-0.03067	0.70374	-0.00473	0.0354	0.075836	-0.010071	0.009308	-0.041809	-0.079651	-0.083618	-0.019684	-0.049133	1.0991	-0.14969	-0.042725	0.008545	-0.029907	-0.41763	0.093079	0.17273	-0.013733	0.012207	-0.00946	0.38208	0.27496	0.001984	0.001984
7.101	0.000763	0.90469	-0.23621	0.00946	0.023499	-0.01236	0.71747	-0.010834	0.010071	0.070648	-0.15656	0.005493	-0.043488	-0.03067	-0.65277	-0.014801	-0.030365	1.2485	-0.10559	-0.02533	0.071564	0.067902	-0.20599	0.053253	-0.013275	0.002289	0.005798	-0.018463	0.7225	0.29907	-0.005035	0.001526
7.102	0.008545	0.92483	-0.25101	0.002441	0.016479	-0.023651	0.62424	-0.008698	0.019531	0.043335	-0.12314	0.007935	-0.020752	-0.082397	-0.39078	-0.023804	-0.000916	1.5535	-0.30914	0.015564	0.039215	0.032806	-0.13382	0.018005	-0.04776	0.00351	0	-0.000458	-0.17075	0.15198	-0.001984	-0.002747
7.103	0.009766	0.94605	-0.23697	-0.018463	0.02182	-0.027008	0.44891	-0.006866	-0.00412	0.085144	-0.21301	0.005951	-0.007019	-0.14404	-0.22751	-0.023346	-0.009003	1.6435	-0.16007	0.092163	0.009003	0.072937	-0.12817	0.11475	0.11231	0.023499	-0.002747	0.022278	-0.51285	-0.1001	0.004272	0.002747
7.104	0.009918	0.96649	-0.22415	0.011597	0.023651	-0.031433	0.22888	-0.010986	-0.028839	0.10269	-0.072479	0.014648	0.014954	-0.059357	-0.11688	-0.006409	-0.005188	1.7183	-0.10025	0.057373	-0.082703	0.05127	-0.050507	0.10544	0.17334	0.011749	-0.04837	0.009155	-0.15335	-0.1738	-0.00061	-0.001831
7.105	0.000153	0.99945	-0.22095	0.016327	0.014648	-0.027161	0.14862	-0.00473	-0.019531	0.071564	0.20447	0.011749	-0.019226	0.002594	0.072327	-0.012817	0.032501	1.7966	0.15854	-0.018158	-0.20065	-0.014038	0.057831	-0.063477	-0.000153	0.014038	0.037537	-0.007629	0.093536	-0.19592	-0.003357	0.006866
7.106	0.002289	1.0547	-0.20996	0.006561	0.027008	-0.020905	0.096588	-0.014496	-0.012207	0.050049	0.28046	0.009766	-0.029755	0.065308	-0.015717	-0.015717	0.030823	2.0012	0.48737	-0.054321	-0.063324	0.10544	0.10147	-0.054169	-0.014801	0.017395	0.034027	-0.016937	0.41306	-0.19211	0.001984	0.002747
7.107	0.000763	1.0683	-0.20783	-0.024261	0.019073	-0.037079	0.089264	-0.016632	0.003204	0.045166	0.019684	0.013733	-0.04776	0.097046	0.121	-0.016937	0.018311	2.0993	0.48294	-0.083618	-0.015106	0.112	-0.12726	0.014801	0.050049	0.018158	-0.18448	-0.008392	-0.009918	-0.10941	0.001068	0.007935
7.108	0.003052	1.0921	-0.21668	-0.024109	0.02243	-0.032043	0.000916	-0.011444	0.005646	0.036926	-0.1178	-0.001373	-0.020294	0.08667	0.32913	-0.014191	0.010834	2.0378	0.083313	-0.083923	-0.10315	0.059509	-0.081177	0.07309	0.15411	0.011444	-0.20081	-0.001678	0.032349	-0.056763	-0.004272	0.004425
7.109	0.00885	1.0976	-0.23132	-0.019989	0.019531	-0.019226	-0.041504	-0.006714	0.005493	0.032196	-0.26962	0.022125	0.054169	0.10208	0.33035	0	0.03067	1.9499	0.23163	-0.019531	-0.13138	0.098724	0.062866	0.14969	0.14771	0.025482	-0.11398	-0.001678	0.14587	-0.090942	0.000763	0.004272
7.11	0.003052	1.1758	-0.23407	-0.00061	0.018768	-0.03418	0.01236	-0.014496	0.010986	0.029907	-0.066223	0.010834	0	0.13245	-0.42633	-0.006256	-0.00061	1.8748	0.41275	0.080261	-0.15213	0.037994	0.1152	0.073547	0.075836	0.007019	-0.0177	-0.008087	0.004425	-0.1622	-0.000763	-0.003662
7.111	0.007629	1.172	-0.20859	0.000916	0.022125	-0.043182	0.074921	-0.019989	0.011444	0.034027	0.000305	0.017853	-0.017853	0.094147	-0.58762	-0.001373	-0.007324	1.8765	0.30746	0.12924	-0.057831	0.036621	0.12039	0.13611	0.031586	-0.000153	0.10208	-0.007477	-0.25894	-0.14481	0	-0.004272
